# xmcd CD database file
#
# Track frame offsets:
#	150
#	12340
#	25580
#	34772
#	48495
#	73275
#	87805
#	102030
#	129217
#	143855
#	157635
#	172870
#
# Disc length: 2528 seconds
#
# Revision: 0
# Processed by: cddbd v1.5.2PL0 Copyright (c) Steve Scherf et al.
# Submitted via: CDex 1.51
#
DISCID=8809de0c
DTITLE=Variouse - The Nashville Scene
DYEAR=1999
DGENRE=Blues
TTITLE0=Al Garner And The Roadrunners - Rhytm Rockin' Blurs
TTITLE1=Al Garner And The Roadrunners - Yeh Yeh Yeh
TTITLE2=Al Garner And The Roadrunners - Rock Awhile
TTITLE3=Johny Jones - No More One More Chance
TTITLE4=Johny Jones - I Can't Do That
TTITLE5=Johny Jones - The Devil Don't
TTITLE6=Charles "Wigg" Walker - They All Look Beter In Green
TTITLE7=Charles "Wigg" Walker - Even The Sky Is Blue
TTITLE8=Charles "Wigg" Walker - 99,000 Watts Of Soul Power
TTITLE9=Clifford Curry - Beulah
TTITLE10=Clifford Curry - Welfare Blues
TTITLE11=Clifford Curry - Down The Road I'll Go
EXTD=YEAR: 1999
EXTT0=
EXTT1=
EXTT2=
EXTT3=
EXTT4=
EXTT5=
EXTT6=
EXTT7=
EXTT8=
EXTT9=
EXTT10=
EXTT11=
PLAYORDER=
